<?xml version="1.0" encoding="utf-8"?>
<!DOCTYPE svg PUBLIC "-//W3C//DTD SVG 1.1//EN" "http://www.w3.org/Graphics/SVG/1.1/DTD/svg11.dtd">
<!-- Generated by geo2svg 2.3.2. https://d3js.org/d3-geo-projection/ -->
<svg version="1.1" xmlns="http://www.w3.org/2000/svg" xmlns:xlink="http://www.w3.org/1999/xlink" width="960" height="960" viewBox="0 0 960 960" fill="none">
  <path id="001020400" fill="#b30000" d="M947.4,694.1L948,693.6L948.5,693.6L948.5,693.7L947.6,694.5L947.6,694.5Z"></path>
  <path id="001021604" fill="#b30000" d="M909.3,698.7L910.3,698.6L910.9,699.8L909.8,699.9Z"></path>
  <path id="003000700" fill="#7f0000" d="M831.9,624L832,624L832,624L832,624.4L831.6,624.5Z"></path>
  <path id="003000800" fill="#7f0000" d="M831.5,624L831.6,623.8L831.9,624L831.6,624.5L831.4,624.4L831.3,624.3Z"></path>
  <path id="003001600" fill="#7f0000" d="M830.8,624.2L830.9,624L831.3,624.2L831.3,624.3L831.4,624.4L831.1,624.5Z"></path>
  <path id="003002201" fill="#7f0000" d="M830.5,623.6L830.8,623.6L830.6,623.7Z"></path>
  <path id="003003403" fill="#7f0000" d="M829.5,622.6L829.9,622.6L829.8,622.7L829.6,622.8L829.5,622.8Z"></path>
  <path id="003005000" fill="#7f0000" d="M829.2,621.8L829.4,622L829.3,622.1L829.2,622.3L829.1,622.2L829,622Z"></path>
  <path id="003005800" fill="#7f0000" d="M828.2,621.8L828.3,621.6L828.5,621.7L828.2,622Z"></path>
  <path id="003006301" fill="#7f0000" d="M828.1,621L828.4,620.9L828.9,620.7L829,620.7L828.7,621L828.4,621.2L828.4,621.2Z"></path>
  <path id="003006302" fill="#7f0000" d="M828.4,620.9L828.8,620.5L828.9,620.7Z"></path>
  <path id="003007807" fill="#7f0000" d="M825.2,618.9L825.9,619.1L825.7,619.2L825.2,618.9Z"></path>
  <path id="003008003" fill="#7f0000" d="M823.8,618.3L824.5,618.4L824.3,618.8L823.7,618.5Z"></path>
  <path id="003008410" fill="#7f0000" d="M821.3,621.7L822.1,621.5L822.3,621.9L821.6,622.2Z"></path>
  <path id="003008907" fill="#7f0000" d="M822.9,615.5L822.9,615.5L822.4,616.2L822.1,615.7Z"></path>
  <path id="003008929" fill="#7f0000" d="M823.2,614.9L823.5,615.1L823.4,615.2L822.9,615.5L822.9,615.5L822.7,615.3Z"></path>
  <path id="003010508" fill="#7f0000" d="M831.3,617.5L831.8,617.2L832,617.6L831.4,617.6Z"></path>
  <path id="003011104" fill="#7f0000" d="M834.3,619L834.5,619L834.2,619.8Z"></path>
  <path id="003981000" fill="#fff7ec" d="M833.3,618.2L833.4,618.2L833.7,618.8Z"></path>
  <path id="007040103" fill="#fdbb84" d="M766.8,581.7L765.1,583.7L763,584L763.5,585L760.3,587.5L761.2,586.6L761.4,581.8L760,581.1L763.8,580.6Z"></path>
  <path id="009030707" fill="#7f0000" d="M888.5,646.6L888.8,646.6L889.1,647.8L888.6,647.8Z"></path>
  <path id="009031102" fill="#7f0000" d="M887.9,641.4L887.9,641.8L887.7,642.1Z"></path>
  <path id="001020701" fill="#b30000" d="M947.7,695L948.7,694.9L948.9,696.2L948.2,695.9L947.7,695.5Z"></path>
  <path id="001020702" fill="#7f0000" d="M947.7,695.5L948.2,695.9L947,696Z"></path>
  <path id="001022102" fill="#fee8c8" d="M939.1,680.3L942.6,682.6L946,685.6L942.6,687.7L942.1,687.4L937.2,688.7L937.1,690.4L934.8,693.7L934.6,695.4L937,701.3L936.9,702.7L939.1,705.9L937.8,706.3L933.2,702.3L930.9,701.8L927.8,703.9L930.3,694.5L931.9,692.5L931.7,690.5L933.8,687.6L935.7,686.8L938.8,681.9Z"></path>
  <path id="003000107" fill="#b30000" d="M835.7,623.5L835.9,622.1L836.4,622L835.8,623.5Z"></path>
  <path id="003000402" fill="#b30000" d="M833.1,622.9L833.2,623.1L833.2,624.1L832.4,624Z"></path>
  <path id="003001100" fill="#7f0000" d="M831.6,623.1L831.9,622.6L831.7,623.3Z"></path>
  <path id="003001400" fill="#7f0000" d="M831.1,623.9L831.5,624L831.3,624.3L831.3,624.2Z"></path>
  <path id="003001804" fill="#7f0000" d="M830.6,624.2L830.8,624.2L830.8,624.2L830.7,624.3Z"></path>
  <path id="003001904" fill="#7f0000" d="M829.8,623.6L830,623.7L829.8,623.6Z"></path>
  <path id="003002401" fill="#7f0000" d="M830.2,623.4L830.4,623.5L830.4,623.6L830.1,623.5Z"></path>
  <path id="003002800" fill="#7f0000" d="M831,623.2L831.6,622.7L831.8,622.4L831.9,622.6L831.6,623.1L831.3,623.5L831.1,623.5Z"></path>
  <path id="003003406" fill="#7f0000" d="M829.8,622.7L830,622.8L829.9,622.9L829.7,622.9L829.6,622.8Z"></path>
  <path id="003003407" fill="#7f0000" d="M830,622.8L830.1,622.9L830.1,623L829.9,622.9Z"></path>
  <path id="003003601" fill="#7f0000" d="M829.6,623L829.6,623L829.8,623.1L829.8,623.2L829.7,623.3Z"></path>
  <path id="003004200" fill="#7f0000" d="M829,622.5L829.2,622.3L829.3,622.4L829.1,622.6Z"></path>
  <path id="003006804" fill="#7f0000" d="M826.3,620.4L826.7,620.1L827.1,620L827.2,620.1L827.3,620.2L826.5,620.5Z"></path>
  <path id="003007100" fill="#7f0000" d="M825.6,621L826.2,621.3L826,621.5L825.4,621.2Z"></path>
  <path id="003007506" fill="#d7301f" d="M826.7,619.8L827.1,620L827.1,620L826.7,620.1Z"></path>
  <path id="003008006" fill="#7f0000" d="M823.8,618.3L824.5,617.6L824.9,617.7L824.9,617.8L824.5,618.4Z"></path>
  <path id="003008407" fill="#7f0000" d="M822.3,622L822.5,622.3L822.2,622.6Z"></path>
  <path id="003008613" fill="#7f0000" d="M819.2,620.6L819.3,620.7L819.3,620.7L819.1,621Z"></path>
  <path id="003008622" fill="#7f0000" d="M819.1,621L819.3,620.7L819.8,621.1L819.3,621.6L818.6,621.2Z"></path>
  <path id="003008909" fill="#7f0000" d="M822.2,616.3L822.5,616.5L822.5,616.8Z"></path>
  <path id="003008921" fill="#7f0000" d="M823.3,618.1L823.5,618L823.7,618.5L823.4,618.6L823.1,618.1Z"></path>
  <path id="003008925" fill="#7f0000" d="M822.1,619L821.7,619.2L821.4,618.6Z"></path>
  <path id="003009300" fill="#7f0000" d="M821.8,613.9L822.2,613.7L822.3,614.1L821.8,614.3Z"></path>
  <path id="001020100" fill="#fdbb84" d="M946,685.6L948,688L947.6,692.2L941.3,691.6L937.1,690.4L937.2,688.7L942.1,687.4L942.6,687.7Z"></path>
  <path id="001020202" fill="#fee8c8" d="M937.1,690.4L941.3,691.6L947.6,692.2L947.7,693.2L945.6,694.1L942.9,695.9L945.8,696.5L948.1,697.5L949,696.4L949.5,697.1L946.1,699.8L945.8,699.4L938.9,703.1L937,701.3L934.6,695.4L934.8,693.7Z"></path>
  <path id="001020300" fill="#b30000" d="M947.7,693.2L948,693.6L947.4,694.1L945.8,694.2L945.6,694.1Z"></path>
  <path id="001020500" fill="#b30000" d="M947.6,694.5L948.5,693.7L948.7,694.9L947.7,695Z"></path>
  <path id="001020600" fill="#fc8d59" d="M952,693.9L949.5,697.1L949,696.4L948.9,696.2L948.7,694.9L948.5,693.7L948.5,693.6L951.4,693Z"></path>
  <path id="001020801" fill="#fc8d59" d="M945.6,694.1L945.8,694.2L945.7,695.4L947.6,694.5L947.6,694.5L947.7,695L947.7,695.5L947,696L945.8,696.5L942.9,695.9Z"></path>
  <path id="001020802" fill="#d7301f" d="M945.8,694.2L947.4,694.1L947.6,694.5L945.7,695.4Z"></path>
  <path id="001020900" fill="#fc8d59" d="M945.8,696.5L947,696L948.2,695.9L948.9,696.2L949,696.4L948.1,697.5Z"></path>
  <path id="001021003" fill="#ef6548" d="M950.1,701L951.3,700L952.8,701.9L951.2,703.7Z"></path>
  <path id="001021005" fill="#ef6548" d="M951.3,700L954,698.2L954.7,699.5L952.8,701.9Z"></path>
  <path id="001021010" fill="#fdbb84" d="M941.3,707.5L944.2,706L945.9,702.6L947.4,701.2L949.5,700L950.1,701L951.2,703.7L946.5,706.4L941.5,707.7Z"></path>
  <path id="001021011" fill="#fdd49e" d="M937,701.3L938.9,703.1L945.8,699.4L946.1,699.8L947.4,701.2L945.9,702.6L944.2,706L941.3,707.5L939.1,705.9L936.9,702.7Z"></path>
  <path id="001021013" fill="#fdbb84" d="M946.1,699.8L949.5,697.1L952,693.9L952.5,697.5L954,698.2L951.3,700L950.1,701L949.5,700L947.4,701.2Z"></path>
  <path id="001021101" fill="#fdbb84" d="M960,702.8L959.5,704.3L959.5,704.4L958.8,705.4L953.3,710.2L954.3,706.1L954.3,704.1L955.9,704.6Z"></path>
  <path id="001021106" fill="#fdd49e" d="M941.5,707.7L946.5,706.4L951.2,703.7L952.8,701.9L954.7,699.5L955.8,700.6L960,702.8L955.9,704.6L954.3,704.1L954.3,706.1L953.3,710.2L951.1,711.6L948.6,712.3L946.9,713.7L946.3,712.4L943.6,711.8L941,708.8Z"></path>
  <path id="001021202" fill="#fee8c8" d="M913,723.4L920.2,717.7L920.4,714.6L925.2,707.7L924.2,706.4L925.8,703.2L927.8,703.9L930.9,701.8L933.2,702.3L937.8,706.3L939.1,705.9L941.3,707.5L941.5,707.7L941,708.8L943.6,711.8L946.3,712.4L946.9,713.7L948.6,712.3L951.1,711.6L948.8,712.4L946.3,714.2L943.7,715L939.3,714.7L937.1,717L934.1,718.4L932.6,720.1L930.5,720.7L928.2,723.4L928.3,724.6L924,730.5L917.6,726.6L914.2,725.6Z"></path>
  <path id="001021300" fill="#fdd49e" d="M915,703.3L918.9,703.1L918.6,704.9L917.5,704.9L919.4,708.5L924.2,706.4L925.2,707.7L920.4,714.6L920.2,717.7L913,723.4L912.5,721.9L913.8,711.4L911.7,705.3L913.1,703.8Z"></path>
  <path id="001021402" fill="#fc8d59" d="M910.7,703L911.9,702.6L915,702.1L915,703.3L913.1,703.8L911.7,705.3Z"></path>
  <path id="001021502" fill="#fdd49e" d="M916.4,689.3L920,694.3L920.5,696.4L924.4,700.8L925.8,703.2L924.2,706.4L919.4,708.5L917.5,704.9L918.6,704.9L918.9,703.1L915,703.3L915,702.1L911.9,702.6L910.9,699.8L910.3,698.6L909.8,695.8L909.7,695.7L909.8,693L915.1,690.7Z"></path>
  <path id="001021504" fill="#fc8d59" d="M909.7,695.7L909.8,695.8L908.6,698.1L906.3,694.3L907.7,695.8Z"></path>
  <path id="001021507" fill="#fdbb84" d="M912.6,686.4L913.6,686.4L916.4,689.3L915.1,690.7L909.8,693L909.7,695.7L907.7,695.8L906.3,694.3L906.7,691.5L910.3,688.4L911.3,688.5Z"></path>
  <path id="001021509" fill="#ef6548" d="M910.9,699.8L911.9,702.6L910.7,703L909.8,699.9Z"></path>
  <path id="001021601" fill="#d7301f" d="M909.8,695.8L910.3,698.6L909.3,698.7L908.6,698.1Z"></path>
  <path id="001021702" fill="#fdd49e" d="M916.4,689.3L919.6,688.5L922.2,683.9L922.4,681.6L921,682L920.6,679.7L918.6,677.8L918.9,676.5L921,676.5L922.8,676.9L922.7,678.5L924.7,678.3L926.3,679.7L926.2,681L926.4,683L923.9,688L924.4,692.2L920.5,696.4L920,694.3Z"></path>
  <path id="001021704" fill="#fdbb84" d="M915.4,679.4L915.3,679.3L915.4,679.4ZM915.6,679.7L916.1,680.1L918.6,677.8L920.6,679.7L921,682L922.4,681.6L922.2,683.9L919.6,688.5L916.4,689.3L913.6,686.4L912.6,686.4L914.6,683.3L915.7,682.7Z"></path>
  <path id="001021800" fill="#fdd49e" d="M921.3,673L921,676.5L918.9,676.5L918.6,677.8L916.1,680.1L915.6,679.7L915.4,679.4L915.3,679.3L913.4,676.7L912.5,672.6L913.2,670.1L915.3,669.3L919.9,671.5Z"></path>
  <path id="001021902" fill="#fdd49e" d="M921.3,673L926,676L927.4,675.5L932.6,677.2L930.2,680.6L929.2,683.3L926.2,681L926.3,679.7L924.7,678.3L922.7,678.5L922.8,676.9L921,676.5Z"></path>
  <path id="001022000" fill="#fee8c8" d="M920.5,696.4L924.4,692.2L923.9,688L926.4,683L926.2,681L929.2,683.3L930.2,680.6L932.6,677.2L939.1,680.3L938.8,681.9L935.7,686.8L933.8,687.6L931.7,690.5L931.9,692.5L930.3,694.5L927.8,703.9L925.8,703.2L924.4,700.8Z"></path>
  <path id="001990300" fill="#fff7ec" d="M959.5,704.3L959.5,704.4L959.5,704.3Z"></path>
  <path id="003000106" fill="#b30000" d="M834.8,622.1L835.1,622.2L835.9,622.1L835.7,623.5L834.9,623.6Z"></path>
  <path id="003000108" fill="#7f0000" d="M834.9,623.6L835.7,623.5L835.8,623.5L835.3,623.9L835,623.7Z"></path>
  <path id="003000110" fill="#d7301f" d="M836.7,622.1L837.9,622.5L837.1,623.6L836.6,623.3Z"></path>
  <path id="003000111" fill="#7f0000" d="M836.4,622L836.7,622.1L836.6,623.3L836.6,623.3L835.8,623.5Z"></path>
  <path id="003000112" fill="#7f0000" d="M835.8,623.5L836.6,623.3L835.8,624.2L835.3,623.9Z"></path>
  <path id="003000114" fill="#b30000" d="M835,623.7L835.3,623.9L835.8,624.2L835.5,624.9L835.3,624.2L834.9,623.8Z"></path>
  <path id="003000200" fill="#d7301f" d="M834,621.9L834.8,622.1L834.9,623.6L835,623.7L834.9,623.8L834.9,623.9L834.1,623.9L833.9,623.9Z"></path>
  <path id="003000301" fill="#d7301f" d="M833.5,621.8L834,621.9L833.9,623.9L833.2,623.1L833.1,622.9Z"></path>
  <path id="003000302" fill="#7f0000" d="M833.2,623.1L833.9,623.9L834.1,623.9L833.2,624.1L833.2,624.1Z"></path>
  <path id="003000401" fill="#d7301f" d="M832.3,623.1L833.3,621.6L833.5,621.8L833.1,622.9L832.4,624L832.3,624Z"></path>
  <path id="003000500" fill="#b30000" d="M832,624.4L832,624L832.3,624L832.4,624L833.2,624.1L833.2,624.1L831.9,625Z"></path>
  <path id="003000600" fill="#d7301f" d="M831.1,624.5L831.4,624.4L831.6,624.5L832,624.4L831.9,625L831,625Z"></path>
  <path id="003000901" fill="#7f0000" d="M832,623.8L832.2,623.1L832.3,623.1L832.3,624L832,624L832,624Z"></path>
  <path id="003000902" fill="#7f0000" d="M831.7,623.5L832.2,623.1L832,623.8L831.6,623.6Z"></path>
  <path id="003000903" fill="#7f0000" d="M831.6,623.6L832,623.8L832,624L831.9,624L831.6,623.8L831.5,623.8Z"></path>
  <path id="003001000" fill="#ef6548" d="M831.6,623.5L831.7,623.3L831.9,622.6L831.8,622.4L832.4,621.4L833.2,621.6L833.3,621.6L832.3,623.1L832.2,623.1L831.7,623.5Z"></path>
  <path id="003001201" fill="#7f0000" d="M831.1,623.5L831.3,623.5L831.6,623.5L831.7,623.5L831.6,623.6L831.5,623.8L831,623.5Z"></path>
  <path id="003001202" fill="#7f0000" d="M831.6,623.1L831.7,623.3L831.6,623.5L831.3,623.5Z"></path>
  <path id="003001300" fill="#7f0000" d="M831,623.5L831,623.5L831.5,623.8L831.6,623.8L831.5,624L831.1,623.9L831,623.7Z"></path>
  <path id="003001500" fill="#7f0000" d="M831,623.7L831.1,623.9L831.3,624.2L830.9,624Z"></path>
  <path id="003001700" fill="#b30000" d="M830.5,624.3L830.6,624.3L830.7,624.3L830.8,624.2L830.8,624.2L831.1,624.5L831,625Z"></path>
  <path id="003001801" fill="#7f0000" d="M830.5,624.1L830.6,624.2L830.7,624.3L830.6,624.3L830.4,624.1Z"></path>
  <path id="003001803" fill="#7f0000" d="M830.6,624L830.8,624.2L830.6,624.2L830.5,624.1Z"></path>
  <path id="003001901" fill="#d7301f" d="M829.8,623.6L829.8,623.6L830,623.7L830.1,623.7L830.1,623.7L830.3,623.9L830.3,624L830.4,624.1L830.6,624.3L830.5,624.3L829.6,623.9Z"></path>
  <path id="003001903" fill="#7f0000" d="M829.8,623.6L830,623.5L830.1,623.7L830,623.7L829.8,623.6Z"></path>
  <path id="003002003" fill="#7f0000" d="M830.3,623.9L830.4,623.8L830.3,624Z"></path>
  <path id="003002004" fill="#7f0000" d="M830.3,624L830.4,623.8L830.4,623.8L830.6,624L830.5,624.1L830.4,624.1Z"></path>
  <path id="003002005" fill="#7f0000" d="M830.1,623.6L830.3,623.7L830.1,623.7L830.1,623.7L830,623.5Z"></path>
  <path id="003002006" fill="#7f0000" d="M830.3,623.7L830.4,623.8L830.4,623.8L830.3,623.9L830.1,623.7Z"></path>
  <path id="003002100" fill="#7f0000" d="M830.6,623.7L830.8,623.6L830.9,623.5L831,623.5L831,623.7L830.9,624L830.8,624.2L830.8,624.2L830.8,624.2L830.6,624L830.4,623.8Z"></path>
  <path id="003002202" fill="#7f0000" d="M830.1,623.5L830.4,623.6L830.5,623.6L830.6,623.7L830.4,623.8L830.3,623.7L830.1,623.6Z"></path>
  <path id="003002300" fill="#7f0000" d="M830.4,623.6L830.4,623.5L830.5,623.4L830.8,623.5L830.9,623.5L830.8,623.6L830.5,623.6Z"></path>
  <path id="003002402" fill="#7f0000" d="M830.2,623.3L830.5,623.4L830.4,623.5L830.2,623.4Z"></path>
  <path id="003002500" fill="#7f0000" d="M830,623.1L830,623.2L830.2,623.3L830.2,623.4L830.1,623.5L830.1,623.6L830,623.5L830,623.5L830,623.3Z"></path>
  <path id="003002600" fill="#7f0000" d="M830.1,623L830.6,623.3L830.8,623.5L830.5,623.4L830.2,623.3L830,623.2Z"></path>
  <path id="003002701" fill="#7f0000" d="M830.7,622.9L830.9,622.7L831,623.2L831.1,623.5L831,623.5L831,623.5L830.9,623.5L830.8,623.5L830.6,623.3Z"></path>
  <path id="003002702" fill="#7f0000" d="M830.1,622.9L830.2,622.8L830.7,622.9L830.6,623.3L830.1,623Z"></path>
  <path id="003002900" fill="#7f0000" d="M830.9,622.7L831.2,622.5L831.6,622.7L831,623.2Z"></path>
  <path id="003003000" fill="#7f0000" d="M830.2,622.7L831,622.2L831.1,622.5L831.2,622.5L830.9,622.7L830.7,622.9L830.2,622.8L830.2,622.7Z"></path>
  <path id="003003101" fill="#d7301f" d="M831.1,622.5L832,620.9L832.4,621.4L831.8,622.4L831.6,622.7L831.2,622.5Z"></path>
  <path id="003003102" fill="#b30000" d="M831,622.2L831.2,621.2L831.4,621L832,620.6L832,620.9L831.1,622.5Z"></path>
  <path id="003003200" fill="#fc8d59" d="M830.1,622.2L831.2,621.2L831,622.2L830.2,622.7Z"></path>
  <path id="003003300" fill="#7f0000" d="M829.8,622.5L830.1,622.2L830.2,622.7L830.2,622.7L830.1,622.7L829.9,622.6Z"></path>
  <path id="003003404" fill="#7f0000" d="M829.8,622.7L829.9,622.6L829.9,622.6L830.1,622.7L830,622.8Z"></path>
  <path id="003003405" fill="#7f0000" d="M830,622.8L830.1,622.7L830.2,622.7L830.2,622.8L830.1,622.9Z"></path>
  <path id="003003501" fill="#7f0000" d="M829.5,622.8L829.6,622.8L829.7,622.9L829.6,623L829.6,623L829.4,622.9Z"></path>
  <path id="003003502" fill="#7f0000" d="M829.7,622.9L829.9,622.9L830.1,623L830,623.2L830,623.1L829.8,623.1L829.6,623Z"></path>
  <path id="003003603" fill="#7f0000" d="M829.8,623.1L830,623.1L830,623.3L829.8,623.2Z"></path>
  <path id="003003604" fill="#7f0000" d="M829.8,623.2L830,623.3L830,623.5L829.7,623.3Z"></path>
  <path id="003003700" fill="#7f0000" d="M829.4,622.9L829.6,623L829.7,623.3L830,623.5L830,623.5L829.8,623.6L829.6,623.9L829.2,623.6Z"></path>
  <path id="003003800" fill="#7f0000" d="M829.2,622.9L829.4,622.9L829.2,623.6L828.7,623.3Z"></path>
  <path id="003003900" fill="#ef6548" d="M828.7,622.6L828.8,622.6L829.1,622.6L829.2,622.9L828.7,623.3L828.6,623.2Z"></path>
  <path id="003004000" fill="#7f0000" d="M828.8,622.6L829,622.5L829.1,622.6L829.1,622.6Z"></path>
  <path id="003004100" fill="#7f0000" d="M829.1,622.6L829.3,622.4L829.5,622.6L829.5,622.8L829.4,622.9L829.2,622.9L829.1,622.6Z"></path>
  <path id="003004300" fill="#7f0000" d="M829.2,622.3L829.3,622.1L829.4,622.1L829.8,622.5L829.9,622.6L829.9,622.6L829.5,622.6L829.3,622.4Z"></path>
  <path id="003004400" fill="#b30000" d="M831.4,621L831.2,621.2L830.1,622.2L829.8,622.5L829.4,622.1Z"></path>
  <path id="003004500" fill="#d7301f" d="M829.4,622L829.6,621.8L831.8,620L831.8,620L832,620.6L831.4,621L829.4,622.1L829.3,622.1Z"></path>
  <path id="003004600" fill="#d7301f" d="M829.6,621L830.4,620.3L830.7,620.2L831.1,619.9L831.8,620L829.6,621.8Z"></path>
  <path id="003004700" fill="#7f0000" d="M829.6,621L829.6,621.8L829.4,622L829.2,621.8L829.1,621.7Z"></path>
  <path id="003004800" fill="#7f0000" d="M828.6,621.2L830.4,620.3L829.6,621L829.1,621.7L828.9,621.8L828.6,621.4Z"></path>
  <path id="003004900" fill="#7f0000" d="M828.9,621.8L829.1,621.7L829.2,621.8L829,622L828.9,621.9Z"></path>
  <path id="003005100" fill="#7f0000" d="M828.9,622.4L829.1,622.2L829.2,622.3L829,622.5Z"></path>
  <path id="003005200" fill="#7f0000" d="M828.8,622.4L828.9,622.4L829,622.5L828.8,622.6L828.7,622.6Z"></path>
  <path id="003005300" fill="#7f0000" d="M828.8,622.2L828.9,622.1L829,622L829.1,622.2L828.9,622.4L828.8,622.4Z"></path>
  <path id="003005400" fill="#7f0000" d="M828.7,622.1L828.9,622.1L828.8,622.2Z"></path>
  <path id="003005500" fill="#7f0000" d="M828.7,622L828.9,621.9L829,622L828.9,622.1L828.7,622.1Z"></path>
  <path id="003005600" fill="#7f0000" d="M828.3,621.6L828.6,621.4L828.9,621.8L828.9,621.9L828.7,622L828.5,621.7Z"></path>
  <path id="003005700" fill="#d7301f" d="M827.7,622.4L828.2,622L828.5,621.7L828.7,622L828.7,622.1L828.8,622.2L828.8,622.4L828.7,622.6L828.6,623.2L827.8,622.7Z"></path>
  <path id="003005900" fill="#7f0000" d="M827.7,621.6L827.7,621.5L828.2,621.8L828.2,622L827.7,622.4Z"></path>
  <path id="003006000" fill="#7f0000" d="M828,621.3L828.1,621.5L828.3,621.6L828.2,621.8L827.7,621.5Z"></path>
  <path id="003006100" fill="#7f0000" d="M828.1,621.5L828.3,621.3L828.4,621.2L828.6,621.4L828.3,621.6Z"></path>
  <path id="003006201" fill="#7f0000" d="M828.1,621L828.4,621.2L828.3,621.3L828.1,621.5L828,621.3Z"></path>
  <path id="003006202" fill="#7f0000" d="M828.4,621.2L828.4,621.2L828.3,621.3Z"></path>
  <path id="003006401" fill="#7f0000" d="M828.4,621.2L828.7,621L828.6,621.2L828.6,621.4Z"></path>
  <path id="003006402" fill="#7f0000" d="M828.7,621L829,620.7L830.7,620.2L830.4,620.3L828.6,621.2Z"></path>
  <path id="003006500" fill="#d7301f" d="M830,619.5L830.5,619.2L831.1,619.9L830.7,620.2L829,620.7L828.9,620.7L828.8,620.5Z"></path>
  <path id="003006600" fill="#ef6548" d="M827.7,621.1L830,619.5L828.8,620.5L828.4,620.9L828.1,621L828,621.3L827.7,621.5L827.7,621.6L827.5,621.5Z"></path>
  <path id="003006701" fill="#ef6548" d="M827.3,619.9L829.9,618.4L830.5,618.7L830.5,619.2L830,619.5L827.7,621.1L827.5,620.8L827.3,620.2L827.2,620.1Z"></path>
  <path id="003006702" fill="#7f0000" d="M827.1,620L827.3,619.9L827.2,620.1L827.1,620Z"></path>
  <path id="003006802" fill="#7f0000" d="M826.1,620.4L826.3,620.4L826.5,620.5L826.4,620.6L826.6,621L826.2,620.4Z"></path>
  <path id="003006805" fill="#7f0000" d="M826.4,620.6L826.5,620.5L827.3,620.2L827.5,620.8L827.3,621L827.2,621L827.2,621L826.8,620.8Z"></path>
  <path id="003006806" fill="#7f0000" d="M826.4,620.6L826.8,620.8L826.7,620.9L826.7,621L826.6,621Z"></path>
  <path id="003006808" fill="#7f0000" d="M826.7,620.9L826.8,620.8L827.2,621Z"></path>
  <path id="003006809" fill="#7f0000" d="M826.7,620.9L827.2,621L827.2,621L826.8,621L826.7,621Z"></path>
  <path id="003006900" fill="#7f0000" d="M826.8,621L827.2,621L827.3,621L827.2,621.4L826.7,621.4Z"></path>
  <path id="003007000" fill="#b30000" d="M826.2,620.4L826.6,621L826.7,621L826.8,621L826.7,621.4L826.3,621.3L826.2,621.3L825.6,621Z"></path>
  <path id="003007302" fill="#7f0000" d="M824.3,621.3L824.3,621.1L825.6,621L825.4,621.2L824.3,621.7Z"></path>
  <path id="003007303" fill="#fdbb84" d="M824.3,621.7L825.4,621.2L826,621.5L825.2,622.3L824.3,621.7Z"></path>
  <path id="003007400" fill="#d7301f" d="M824.7,619.3L824.9,619.6L825,619.7L825.9,619.7L826,620.1L826.1,620.4L826.2,620.4L825.6,621L824.3,621.1Z"></path>
  <path id="003007502" fill="#fdbb84" d="M827.1,618.8L829.3,617.7L829.7,617.5L829.9,618.4L827.3,619.9L827.1,620L826.7,619.8Z"></path>
  <path id="003007503" fill="#7f0000" d="M826.5,619.2L827.1,618.8L826.7,619.8L826.2,619.7L826.1,619.5Z"></path>
  <path id="003007504" fill="#7f0000" d="M825.9,619.7L826.1,619.5L826.2,619.7L826,620.1Z"></path>
  <path id="003007505" fill="#7f0000" d="M826.2,619.7L826.7,619.8L826.7,620.1L826.3,620.4L826.1,620.4L826,620.1Z"></path>
  <path id="003007701" fill="#7f0000" d="M825.7,619.3L826.5,619.2L826.1,619.5L825.9,619.7L825,619.7Z"></path>
  <path id="003007702" fill="#d7301f" d="M825.7,619.2L825.9,619.1L829.3,617.7L827.1,618.8L826.5,619.2L825.7,619.3Z"></path>
  <path id="003007804" fill="#7f0000" d="M824.6,618.6L825.1,618.1L825,618.3L824.7,618.7Z"></path>
  <path id="003007805" fill="#7f0000" d="M825,618.3L825.4,618.5L825.2,618.9L824.7,618.7Z"></path>
  <path id="003007808" fill="#7f0000" d="M825.1,619.1L825.2,618.9L825.7,619.2L825.7,619.3L825,619.7L824.9,619.6Z"></path>
  <path id="003007809" fill="#b30000" d="M825.4,618.5L826.7,618.3L825.2,618.9L825.2,618.9Z"></path>
  <path id="003007810" fill="#ef6548" d="M824.9,617.7L828.4,616.2L829,617.2L826.7,618.3L825.4,618.5L825,618.3L825.1,618.1L824.9,617.8Z"></path>
  <path id="003007811" fill="#d7301f" d="M826.7,618.3L829,617.2L829.4,617.3L829.7,617.5L829.3,617.7L825.9,619.1L825.2,618.9Z"></path>
  <path id="003008001" fill="#7f0000" d="M824.3,618.8L825.1,619.1L824.9,619.6L824.7,619.3L824,619L823.7,618.5Z"></path>
  <path id="003008002" fill="#7f0000" d="M824.5,618.4L824.6,618.6L824.7,618.7L825.2,618.9L825.2,618.9L825.2,618.9L825.1,619.1L824.3,618.8Z"></path>
  <path id="003008005" fill="#d7301f" d="M824.5,617.6L828.3,615.9L828.4,616.2L824.9,617.7Z"></path>
  <path id="003008007" fill="#7f0000" d="M824.5,618.4L824.9,617.8L825.1,618.1L824.6,618.6Z"></path>
  <path id="003008301" fill="#ef6548" d="M822.2,620.4L822.7,620.3L824.3,621.3L824.3,621.7L824.3,621.7L823.5,622.4L822.9,622.4L823.1,621.6L822.4,621.2L822.1,620.7Z"></path>
  <path id="003008302" fill="#7f0000" d="M822.5,622.3L822.9,621.8L823.1,621.6L822.9,622.4Z"></path>
  <path id="003008402" fill="#7f0000" d="M822.3,622L822.9,621.8L822.5,622.3L822.3,622ZM822.2,622.6L822.5,622.3L822.9,622.4L823.5,622.4L822.1,622.7Z"></path>
  <path id="003008405" fill="#7f0000" d="M821.9,620.9L822.1,620.7L822.4,621.2L822.1,621.5L822,621.2Z"></path>
  <path id="003008406" fill="#7f0000" d="M822.1,621.5L822.4,621.2L823.1,621.6L822.9,621.8L822.3,622L822.3,621.9Z"></path>
  <path id="003008408" fill="#b30000" d="M821.6,622.2L822.3,621.9L822.3,622L822.3,622L822.2,622.6L822.1,622.7L821.2,622.9Z"></path>
  <path id="003008411" fill="#7f0000" d="M821.5,621.4L822,621.2L822.1,621.5L821.3,621.7L821,621.6Z"></path>
  <path id="003008412" fill="#7f0000" d="M821.9,620.9L822,621.2L821.5,621.4Z"></path>
  <path id="003008502" fill="#fc8d59" d="M817.9,622L818.2,621.5L819.2,621.8L821,621.6L821,621.6L821.3,621.7L821.6,622.2L821.2,622.9L819.4,623.2L817.9,622.1L817.9,622L817.9,622Z"></path>
  <path id="003008606" fill="#7f0000" d="M820.8,621.2L820.8,621.3L819.8,621.1Z"></path>
  <path id="003008609" fill="#d7301f" d="M818.1,621L818.6,621.2L819.3,621.6L819.2,621.8L818.2,621.5Z"></path>
  <path id="003008610" fill="#d7301f" d="M817.5,620.8L818.1,621L818.2,621.5L817.9,622Z"></path>
  <path id="003008611" fill="#fdd49e" d="M818.4,619.2L819.2,620.6L819.1,621L818.6,621.2L818.1,621L817.5,620.8L817.3,619.9Z"></path>
  <path id="003008612" fill="#b30000" d="M818.4,619.2L818.8,618.5L819.3,620.7L819.2,620.6Z"></path>
  <path id="003008614" fill="#fc8d59" d="M818.8,618.5L818.8,617.9L819.1,616L819.6,614.5L820.6,614.7L820.9,614.9L820.9,615.1L820.5,616.7L821.4,618.6L821.7,619.2L821.8,619.4L821.9,619.6L821.9,620.1L820.8,621.2L819.8,621.1L819.3,620.7L819.3,620.7Z"></path>
  <path id="003008617" fill="#7f0000" d="M820.8,621.2L821.9,620.1L822.2,620.4L822.1,620.7L821.9,620.9L821.5,621.4L821,621.6L821,621.6L820.8,621.3Z"></path>
  <path id="003008701" fill="#7f0000" d="M823.1,618.7L823.3,618.6L823.4,618.6L823.7,618.5L823.7,618.5L824,619L823,619.3Z"></path>
  <path id="003008702" fill="#7f0000" d="M822.5,619.1L822.9,618.8L823.1,618.7L823,619.3L822.6,619.4Z"></path>
  <path id="003008703" fill="#7f0000" d="M821.9,619.6L822.3,619.2L822.5,619.1L822.6,619.4L822.7,620.3L822.2,620.4L821.9,620.1Z"></path>
  <path id="003008800" fill="#7f0000" d="M822.2,618.9L822.9,618.5L822.9,618.8L822.5,619.1L822.3,619.2L822.2,619.2Z"></path>
  <path id="003008906" fill="#7f0000" d="M822,615.6L822.1,615.7L822.4,616.2L822.4,616.2L822.5,616.5L822.2,616.3L821.8,616.2Z"></path>
  <path id="003008908" fill="#b30000" d="M821.8,616.2L822.2,616.3L822.5,616.8L822.6,617.3L822.5,618.2Z"></path>
  <path id="003008912" fill="#7f0000" d="M822.9,618.5L823.3,618.6L823.1,618.7L822.9,618.8Z"></path>
  <path id="003008913" fill="#7f0000" d="M822.1,619L822.2,618.9L822.2,619.2L821.8,619.4L821.7,619.2Z"></path>
  <path id="003008914" fill="#7f0000" d="M822.2,619.2L822.3,619.2L821.9,619.6L821.8,619.4Z"></path>
  <path id="003008915" fill="#7f0000" d="M822,614.9L822.4,615.1L822.7,615.3L822.9,615.5L822.1,615.7L822,615.6L821.9,614.9Z"></path>
  <path id="003008917" fill="#7f0000" d="M822.4,616.2L822.9,615.5L823.3,615.8L823.3,615.8L823.3,615.9L822.4,616.2Z"></path>
  <path id="003008918" fill="#7f0000" d="M823.3,615.9L822.6,617.3L822.5,616.8L822.5,616.5L822.4,616.2Z"></path>
  <path id="003008920" fill="#b30000" d="M823.3,615.9L823.3,615.8L823.5,618L823.3,618.1L822.8,617.6L822.6,617.3Z"></path>
  <path id="003008922" fill="#7f0000" d="M822.5,618.2L822.6,617.3L822.8,617.6L823.1,618.1L823.4,618.6L823.3,618.6L822.9,618.5L822.2,618.9Z"></path>
  <path id="003008923" fill="#7f0000" d="M823.3,618.1L823.1,618.1L822.8,617.6Z"></path>
  <path id="003008924" fill="#ef6548" d="M820.9,615.1L822,615.6L821.8,616.2L822.5,618.2L822.2,618.9L822.1,619L821.4,618.6L820.5,616.7Z"></path>
  <path id="003008926" fill="#d7301f" d="M822,614.9L823.7,614.5L823.6,614.6L823.1,614.7L822.4,615.1Z"></path>
  <path id="003008927" fill="#7f0000" d="M823.1,614.7L823.2,614.9L822.7,615.3L822.4,615.1Z"></path>
  <path id="003008928" fill="#7f0000" d="M823.6,614.6L823.5,615.1L823.2,614.9L823.1,614.7Z"></path>
  <path id="003008930" fill="#7f0000" d="M822.9,615.5L823.4,615.2L823.3,615.8Z"></path>
  <path id="003008931" fill="#fdbb84" d="M823.3,615.8L823.3,615.8L823.4,615.2L823.5,615.1L823.6,614.6L823.7,614.5L827.2,613.9L827.4,613.9L828.3,615.9L824.5,617.6L823.8,618.3L823.7,618.5L823.7,618.5L823.5,618Z"></path>
  <path id="003009000" fill="#d7301f" d="M820.9,614.9L821.2,614.6L821.4,614.4L821.8,614.3L821.9,614.9L822,615.6L820.9,615.1Z"></path>
  <path id="003009100" fill="#fc8d59" d="M820.6,613.5L822.3,612.7L826.4,612.5L827,613.5L823.6,613.5L822.2,613.7L821.8,613.9L820.8,613.9L820.4,613.6Z"></path>
  <path id="003009200" fill="#7f0000" d="M822.2,613.7L823.6,613.5L822.3,614.1Z"></path>
  <path id="003009400" fill="#7f0000" d="M820.8,613.9L821.8,613.9L821.8,614.3L821.8,614.3L821.4,614.4L820.9,613.9Z"></path>
  <path id="003009501" fill="#7f0000" d="M819.6,614.3L820.2,614.3L820.6,614.7L819.6,614.5Z"></path>
  <path id="003009502" fill="#7f0000" d="M819.7,614.1L820.4,614.2L820.2,614.3L819.6,614.3Z"></path>
  <path id="003009503" fill="#7f0000" d="M820.2,614.3L820.4,614.2L820.6,614.1L821.2,614.6L820.9,614.9L820.6,614.7Z"></path>
  <path id="003009504" fill="#7f0000" d="M820.6,614.1L820.9,613.9L821.4,614.4L821.2,614.6Z"></path>
  <path id="003009507" fill="#7f0000" d="M819.7,614.1L820,613.6L820.4,613.6L820.8,613.9L820.9,613.9L820.6,614.1L820.4,614.2Z"></path>
  <path id="003009603" fill="#b30000" d="M815.6,617.1L815.7,617.1L815.5,618.3L815.4,617.2Z"></path>
  <path id="003009608" fill="#fc8d59" d="M815.7,617.1L816.8,615.4L816.8,615.4L817.5,614.8L819.1,616L818.8,617.9L816.6,619.1L815.5,618.3Z"></path>
  <path id="003009701" fill="#ef6548" d="M814.4,615.8L814.6,615.7L816.8,613.7L817.5,614.8L816.8,615.4L815,616.6ZM816.6,615L816.6,615L816.6,615Z"></path>
  <path id="003009703" fill="#b30000" d="M816.6,615L816.6,615L816.6,615ZM816.8,615.4L816.8,615.4L815.6,617.1L815.4,617.2L815,616.6Z"></path>
  <path id="003009704" fill="#d7301f" d="M816.8,615.4L815.7,617.1L815.6,617.1Z"></path>
  <path id="003009801" fill="#fdbb84" d="M817,613.6L816.8,613.7L814.6,615.7L813.7,615L813.2,612.2L811.5,610.7L814.8,611.9Z"></path>
  <path id="003009802" fill="#7f0000" d="M813.7,615L814.6,615.7L814.4,615.8Z"></path>
  <path id="003009902" fill="#b30000" d="M817.9,610L818.6,609.5L818.3,611.1Z"></path>
  <path id="003009904" fill="#fdbb84" d="M817.9,610L818.3,611.1L820.6,613.5L820.4,613.6L820,613.6L819.1,612.9L817,613.6L814.8,611.9L811.5,610.7L813.1,610.2Z"></path>
  <path id="003010000" fill="#fdbb84" d="M818.6,609.5L820.3,607.5L823.9,608.1L824.5,608.8L825.7,610.8L826.4,612.5L822.3,612.7L820.6,613.5L818.3,611.1Z"></path>
  <path id="003010100" fill="#fc8d59" d="M825.8,606.1L824.5,608.8L823.9,608.1L820.3,607.5L822.7,604.8L824.4,604.4Z"></path>
  <path id="003010201" fill="#fc8d59" d="M826.8,608.6L829.9,612.3L827.4,613.9L827.2,613.9L827,613.5L826.4,612.5L825.7,610.8Z"></path>
  <path id="003010202" fill="#ef6548" d="M825.8,606.1L826.8,608.6L825.7,610.8L824.5,608.8Z"></path>
  <path id="003010303" fill="#fc8d59" d="M827.4,613.9L829.9,612.3L829.8,615.8L829.5,617L829.4,617.3L829,617.2L828.4,616.2L828.3,615.9Z"></path>
  <path id="003010305" fill="#b30000" d="M829.5,617L829.8,615.8L831,616.3Z"></path>
  <path id="003010306" fill="#d7301f" d="M829.4,617.3L829.5,617L831,616.3L831.2,616.7L830.9,617.7L830.7,618.3L830.8,618.4L830.5,618.7L829.9,618.4L829.7,617.5Z"></path>
  <path id="003010308" fill="#ef6548" d="M830.5,618.7L830.8,618.4L831.5,618L831.4,618.3L831.3,618.8L831.9,619.2L831.8,620L831.8,620L831.1,619.9L830.5,619.2Z"></path>
  <path id="003010503" fill="#b30000" d="M830.7,618.3L831.4,617.7L831.5,617.9L831.5,618L830.8,618.4Z"></path>
  <path id="003010504" fill="#7f0000" d="M831.4,617.6L832,617.6L832.2,617.9L831.5,617.9L831.4,617.7Z"></path>
  <path id="003010505" fill="#7f0000" d="M831.2,616.7L831.8,617.2L831.3,617.5L830.9,617.7Z"></path>
  <path id="003010507" fill="#7f0000" d="M830.9,617.7L831.3,617.5L831.4,617.6L831.4,617.7L830.7,618.3Z"></path>
  <path id="003010601" fill="#7f0000" d="M831.5,618L831.5,617.9L832.2,617.9L832.3,617.9L831.9,618.2L831.4,618.3Z"></path>
  <path id="003010602" fill="#7f0000" d="M831.3,618.8L831.4,618.3L831.9,618.2L831.9,619.2Z"></path>
  <path id="003010701" fill="#b30000" d="M832.3,617.9L832.8,617.2L833,617L833.2,617.2L833,618.2L832.7,618.5L831.9,618.2Z"></path>
  <path id="003010702" fill="#b30000" d="M831.9,618.2L832.7,618.5L831.9,619.2L831.9,619.2Z"></path>
  <path id="003010801" fill="#d7301f" d="M833.9,616L833.2,617.2L833,617L832.9,617Z"></path>
  <path id="003010802" fill="#b30000" d="M833.9,616L834.2,617.2L833.9,617.2L833.2,617.2Z"></path>
  <path id="003010901" fill="#b30000" d="M833.2,617.2L833.9,617.2L833.7,617.6L833.5,618.1L833.4,618.2L833.3,618.2L833,618.2Z"></path>
  <path id="003010903" fill="#7f0000" d="M833.4,618.2L833.5,618.1L833.7,618.4L833.9,618.7L833.8,618.8L833.7,618.8L833.7,618.8Z"></path>
  <path id="003010904" fill="#7f0000" d="M833.5,618.1L833.7,617.6L833.9,618.3L833.7,618.4Z"></path>
  <path id="003010905" fill="#7f0000" d="M833.7,618.4L833.9,618.3L834.1,618.6L833.9,618.7Z"></path>
  <path id="003011000" fill="#fc8d59" d="M831.8,620L831.9,619.2L832.7,618.5L833,618.2L833.3,618.2L833.7,618.8L833.7,618.8L834.2,620.3L833.2,621.6L832.4,621.4L832,620.9L832,620.6Z"></path>
  <path id="003011103" fill="#b30000" d="M833.7,618.8L833.8,618.8L834.3,619L834.2,619.8L834.2,620.3Z"></path>
  <path id="003011105" fill="#7f0000" d="M833.9,618.7L834.1,618.6L834.5,618.7L834.5,619L834.3,619L833.8,618.8Z"></path>
  <path id="003011106" fill="#7f0000" d="M834.2,619.8L834.5,619L834.5,618.7L834.9,618.8L834.9,619.4L834.7,620.3L834.2,620.3Z"></path>
  <path id="003011201" fill="#7f0000" d="M833.9,617.2L834.2,617.2L834.9,618.7L834.9,618.8L834.5,618.7L834.1,618.6L833.9,618.3L833.7,617.6Z"></path>
  <path id="003011202" fill="#b30000" d="M834.9,618.7L835.5,619.4L834.9,619.4L834.9,618.8Z"></path>
  <path id="003011300" fill="#ef6548" d="M833.2,621.6L834.2,620.3L834.7,620.3L835.3,620.9L835.1,622.2L834.8,622.1L834,621.9L833.5,621.8L833.3,621.6Z"></path>
  <path id="003011400" fill="#d7301f" d="M822.6,619.4L823,619.3L824,619L824.7,619.3L824.3,621.1L824.3,621.3L822.7,620.3Z"></path>
  <path id="003011500" fill="#b30000" d="M819.3,621.6L819.8,621.1L820.8,621.3L821,621.6L819.2,621.8Z"></path>
  <path id="003940001" fill="#d7301f" d="M835.3,620.9L835.6,620.8L837.9,622.5L836.7,622.1L836.4,622L835.9,622.1L835.1,622.2Z"></path>
  <path id="003940002" fill="#d7301f" d="M816.6,619.1L818.8,617.9L818.8,618.5L818.4,619.2L817.3,619.9Z"></path>
  <path id="003980000" fill="#fee8c8" d="M835.8,624.2L836.6,623.3L836.6,623.3L837.1,623.6L835.5,624.9Z"></path>
  <path id="003980200" fill="#fc8d59" d="M825.2,622.3L826,621.5L826.2,621.3L826.3,621.3L827,622.8Z"></path>
  <path id="003980300" fill="#fff7ec" d="M817.9,622.1L819.4,623.2L817.9,622.1ZM817.9,622L817.9,622L817.9,622Z"></path>
  <path id="003980600" fill="#fee8c8" d="M816.8,613.7L817,613.6L819.1,612.9L820,613.6L819.7,614.1L819.6,614.3L819.6,614.5L819.1,616L817.5,614.8Z"></path>
  <path id="003980700" fill="#fff7ec" d="M821.8,614.3L822.3,614.1L823.6,613.5L827,613.5L827.2,613.9L823.7,614.5L822,614.9L821.9,614.9L821.8,614.3Z"></path>
  <path id="003980800" fill="#fff7ec" d="M831.3,618.8L831.9,619.2L831.9,619.2Z"></path>
  <path id="003981100" fill="#fdd49e" d="M834.9,619.4L835.5,619.4L835.6,620.8L835.3,620.9L834.7,620.3Z"></path>
  <path id="003981300" fill="#fff7ec" d="M827.3,621L827.5,620.8L827.7,621.1L827.5,621.5L827.2,621.4Z"></path>
  <path id="003981400" fill="#fff7ec" d="M826.3,621.3L826.7,621.4L827.2,621.4L827.5,621.5L827.7,621.6L827.7,622.4L827.8,622.7L827,622.8Z"></path>
  <path id="003990001" fill="#fff7ec" d="M834.9,623.8L835.3,624.2L834.9,623.9ZM832.9,617L833,617L832.8,617.2Z"></path>
  <path id="005031900" fill="#fee8c8" d="M864.8,628.2L867,626.9L868.9,628.8L868.6,630.3L867.9,629.2Z"></path>
  <path id="007040104" fill="#fdd49e" d="M751.8,583.4L756.5,580.7L760,581.1L761.4,581.8L761.2,586.6L760.3,587.5L759.8,587.6L758.3,586.9L755.7,583.5L753.7,584.3Z"></path>
  <path id="007040204" fill="#ef6548" d="M763.5,587.9L766.3,586.4L766.9,587.2L765.1,588.6Z"></path>
  <path id="007040205" fill="#ef6548" d="M766.9,587.2L767.4,588.2L766.8,588.9L765.1,588.6Z"></path>
  <path id="007040300" fill="#b30000" d="M768,586.8L767.4,588.2L766.9,587.2L766.3,586.4Z"></path>
  <path id="007040400" fill="#fdbb84" d="M759.6,588.6L759.8,587.6L763.5,587.9L765.1,588.6L766.8,588.9L766.7,591.3L765,591.3L766.6,593.1L766.6,593.2L766.3,593.6L764.5,595.3L761.4,592.9L759.9,591.6Z"></path>
  <path id="007040500" fill="#d7301f" d="M766.7,591.3L766.6,593.1L765,591.3Z"></path>
  <path id="007040603" fill="#fdbb84" d="M761.2,593.1L761.4,592.9L764.5,595.3L762,596.9L761,596.4Z"></path>
  <path id="007040604" fill="#fc8d59" d="M761.2,593.1L761,596.4L759.6,596.1L759.4,594.5Z"></path>
  <path id="007040700" fill="#fc8d59" d="M755.9,595.3L757.3,594.2L758.6,590.2L759.6,588.6L759.9,591.6L761.4,592.9L761.2,593.1L759.4,594.5L759.6,596.1Z"></path>
  <path id="007040800" fill="#fdd49e" d="M753.7,584.3L755.7,583.5L758.3,586.9L759.8,587.6L759.6,588.6L758.6,590.2L757.3,594.2L755.9,595.3L755.4,595.7L752.7,593L752.6,590.7L754,588.4L752.9,586.4Z"></path>
  <path id="007040900" fill="#fdbb84" d="M751.8,583.4L753.7,584.3L752.9,586.4L754,588.4L752.6,590.7L752.7,593L748.8,591.7L747.7,589.9L747.8,587.8L749.5,586.3L750.5,583.9Z"></path>
  <path id="007041200" fill="#fff7ec" d="M728.4,599.4L728.3,599.2L728.3,599L728.1,598.3L729.1,595.5L733.4,592.7L734.8,590.3L736.4,591L735.1,593.9L735.5,595.4L731.9,596.7L730,600.6Z"></path>
  <path id="007940000" fill="#fdbb84" d="M760.3,587.5L763.5,585L763,584L765.1,583.7L766.8,581.7L768.6,584.4L768,586.8L766.3,586.4L763.5,587.9L759.8,587.6Z"></path>
  <path id="007990100" fill="#fff7ec" d="M766.6,593.2L766.3,593.6L766.6,593.2Z"></path>
  <path id="007990200" fill="#fff7ec" d="M728.3,599.2L728.4,599.4L728.3,599.2ZM728.1,598.3L728.3,599L728.1,598.3Z"></path>
  <path id="009030100" fill="#fee8c8" d="M898.3,646.9L898.3,644.5L899.8,641.1L902.5,642.6L903.5,644.2L907.7,645.4L908.7,646.4L908.9,648.8L906.2,652L902.3,653.6L900,653.1L894.8,655.2L894.7,651.2L897.4,649.6L899,651.5L902.3,650.6L901.6,648Z"></path>
  <path id="009030201" fill="#fdd49e" d="M896.5,639.2L898.9,640.2L898.9,640.3L899.8,641.1L898.3,644.5L898.3,646.9L897.5,646.9L896.2,645.5L896.2,643.6L895,642.5Z"></path>
  <path id="009030202" fill="#ef6548" d="M893.5,639.1L896.5,639.2L895,642.5L893.8,639.8Z"></path>
  <path id="009030301" fill="#fdbb84" d="M890,647L890.9,643.9L891.2,643.6L897.5,646.9L898.3,646.9L901.6,648L902.3,650.6L899,651.5L897.4,649.6L894.7,651.2L894.8,655.2L892.3,655.7L890.4,654.7L890,652.5L891,647.4Z"></path>
  <path id="009030303" fill="#fdbb84" d="M889.2,649.9L889.6,649.4L889.4,648.5L889.7,647.8L890,647L891,647.4L890,652.5L890.4,654.7L889.4,654.4Z"></path>
  <path id="009030402" fill="#fc8d59" d="M892.3,641.8L894.3,643.6L896.2,645.5L897.5,646.9L891.2,643.6Z"></path>
  <path id="009030403" fill="#fc8d59" d="M895,642.5L896.2,643.6L896.2,645.5L894.3,643.6Z"></path>
  <path id="009030404" fill="#ef6548" d="M892.3,641.8L893.8,639.8L895,642.5L894.3,643.6Z"></path>
  <path id="009030501" fill="#fc8d59" d="M891.3,640.2L893.5,639.1L893.8,639.8L892.3,641.8Z"></path>
  <path id="009030705" fill="#fdbb84" d="M888.4,643.4L890.9,643.9L890,647L889.7,647.8L889.1,647.8L888.8,646.6L888.4,646.1Z"></path>
  <path id="009030706" fill="#7f0000" d="M888.4,646.1L888.8,646.6L888.5,646.6L887.3,645.7Z"></path>
  <path id="009030708" fill="#b30000" d="M889.1,647.8L889.7,647.8L889.4,648.5L888.7,648.4L888.6,647.8Z"></path>
  <path id="009030709" fill="#7f0000" d="M889.4,648.5L889.6,649.4L889.1,649.3L888.7,648.4Z"></path>
  <path id="009030710" fill="#7f0000" d="M889.1,649.3L889.6,649.4L889.2,649.9Z"></path>
  <path id="009030800" fill="#fdbb84" d="M882.8,642.2L883,641.7L883.1,641.4L883.7,640.2L883.2,635.4L884.2,635.8L887.1,640.1L886.6,641.1L886.8,642.3L887.5,643.2L885.4,644.8Z"></path>
  <path id="009030901" fill="#7f0000" d="M886.6,641.2L886.8,641.1L886.9,641.4Z"></path>
  <path id="009030902" fill="#7f0000" d="M886.8,641.1L887.4,640.5L887.6,640.8L886.9,641.4Z"></path>
  <path id="009030903" fill="#7f0000" d="M886.6,641.2L886.6,641.1L887.1,640.1L887.4,640.5L886.8,641.1Z"></path>
  <path id="009031000" fill="#b30000" d="M886.6,641.1L886.6,641.2L886.9,641.4L887.6,640.8L887.6,640.9L887.6,640.9L886.8,642.3Z"></path>
  <path id="009031101" fill="#b30000" d="M886.8,642.3L887.6,640.9L887.9,641.4L887.7,642.1L887.6,643L887.5,643.2L887.5,643.2Z"></path>
  <path id="009031103" fill="#7f0000" d="M887.7,642.1L887.9,641.8L887.6,643Z"></path>
  <path id="009031402" fill="#fc8d59" d="M883.1,641.3L883.1,641.4L883,641.7L879.1,641.7L878.9,641.7L878.5,640.3Z"></path>
  <path id="009031404" fill="#7f0000" d="M878.9,641.7L879.1,641.7L879.8,643L879.8,643Z"></path>
  <path id="009031405" fill="#ef6548" d="M879.1,641.7L883,641.7L882.8,642.2L879.8,643Z"></path>
  <path id="009031501" fill="#d7301f" d="M879.6,636.7L879.6,636.6L880.5,635.9Z"></path>
  <path id="009031502" fill="#fdbb84" d="M879.6,636.7L879.6,636.6L879.6,636.7ZM878.9,638.4L879.6,636.7L880.5,635.9L883.2,635.4L883.7,640.2L883.1,641.4L883.1,641.3L881.8,639.3Z"></path>
  <path id="009031503" fill="#fdbb84" d="M878.9,638.4L881.8,639.3L883.1,641.3L878.5,640.3Z"></path>
  <path id="009031601" fill="#fdd49e" d="M863,641L866.1,639.8L870.5,640.9L873.8,644.6L872.8,647.1L870.2,648.6L867.1,648.7L865.3,643.4L863.4,642.5Z"></path>
  <path id="009031700" fill="#fdd49e" d="M868.6,630.3L868.9,628.8L871.2,629.2L873.8,628.5L877.8,629.2L876.7,631.3L874.4,633.2L870.8,634.4L861.6,631.9L864.6,630.2Z"></path>
  <path id="009031801" fill="#fdd49e" d="M864.8,628.2L867.9,629.2L868.6,630.3L864.6,630.2L861.6,631.9L854.8,632.6L852.3,632L854.8,628.5L854.4,626.6L857.5,627.3Z"></path>
  <path id="009031900" fill="#fc8d59" d="M887.5,643.2L887.6,643L887.9,641.8L887.9,641.4L887.6,640.9L887.6,640.9L891.3,640.2L892.3,641.8L891.2,643.6L890.9,643.9L888.4,643.4Z"></path>
  <path id="009032000" fill="#fdd49e" d="M879.8,643L882.8,642.2L885.4,644.8L887.5,643.2L887.5,643.2L888.4,643.4L888.4,646.1L887.3,645.7L885.2,646.6L881.8,645.2L879.8,643Z"></path>
  <path id="009980000" fill="#fff7ec" d="M878.4,657.9L879.4,656.7L884,654.5L885.3,655.7L884.7,658.3L879.9,659.1Z"></path>
  <path id="009990200" fill="#fff7ec" d="M898.9,640.3L898.9,640.2L898.9,640.3Z"></path>
</svg>
